<?xml version="1.0" encoding="UTF-8" standalone="no"?>
<svg
   version="1.1"
   id="svg2"
   viewBox="0 0 34 34"
   height="34"
   width="34"
   xmlns="http://www.w3.org/2000/svg"
   xmlns:svg="http://www.w3.org/2000/svg">
  <defs
     id="defs4" />
  <rect
     style="opacity:1;fill:#1d2324;fill-opacity:1;stroke:none;stroke-width:1.35195;stroke-linecap:butt;stroke-linejoin:round;stroke-miterlimit:4;stroke-dasharray:none;stroke-dashoffset:0;stroke-opacity:1"
     id="rect1581"
     width="34"
     height="34"
     x="255"
     y="658.77209"
     transform="translate(-255,-658.77209)" />
  <path
     id="path2873"
     d="m 272.0001,686.77209 c 6.07503,0 10.9999,-4.92488 10.9999,-11 0,-6.0752 -4.92487,-11 -10.9999,-11 -6.07521,0 -11.0001,4.9248 -11.0001,11 0,6.07512 4.92489,11 11.0001,11"
     style="opacity:1;fill:#a3b5d9;fill-opacity:1;fill-rule:evenodd;stroke:#a3b5d9;stroke-width:2;stroke-dasharray:none;stroke-opacity:1;enable-background:new"
     transform="translate(-255,-658.77209)" />
  <path
     style="opacity:1;fill:#1d2324;fill-opacity:1"
     id="path2879"
     d="m 272,669.77209 a 6,6 0 0 0 -6,6 6,6 0 0 0 6,6 6,6 0 0 0 6,-6 6,6 0 0 0 -6,-6 z m 0,2 a 4,4 0 0 1 4,4 4,4 0 0 1 -4,4 4,4 0 0 1 -4,-4 4,4 0 0 1 4,-4 z"
     transform="translate(-255,-658.77209)" />
</svg>
