<?xml version="1.0" encoding="UTF-8" standalone="no"?>
<svg
   version="1.1"
   id="svg2"
   viewBox="0 0 34 34"
   height="34"
   width="34"
   xmlns="http://www.w3.org/2000/svg"
   xmlns:svg="http://www.w3.org/2000/svg">
  <defs
     id="defs4" />
  <rect
     style="opacity:1;fill:#1d2324;fill-opacity:1;stroke:none;stroke-width:1.35195;stroke-linecap:butt;stroke-linejoin:round;stroke-miterlimit:4;stroke-dasharray:none;stroke-dashoffset:0;stroke-opacity:1"
     id="rect1587"
     width="34"
     height="34"
     x="255"
     y="696.36206"
     transform="translate(-255,-696.36206)" />
  <path
     style="opacity:1;fill:#a3b5d9;fill-opacity:1;fill-rule:evenodd;stroke:#a3b5d9;stroke-width:2;stroke-dasharray:none;stroke-opacity:1;enable-background:new"
     d="m 272.0001,724.36219 c 6.07503,0 10.9999,-4.92498 10.9999,-11.0001 0,-6.07502 -4.92487,-11 -10.9999,-11 -6.07521,0 -11.0001,4.92498 -11.0001,11 0,6.07512 4.92489,11.0001 11.0001,11.0001"
     id="path2899"
     transform="translate(-255,-696.36206)" />
  <path
     d="m 272,707.36209 a 6,6 0 0 0 -6,6 6,6 0 0 0 6,6 6,6 0 0 0 6,-6 6,6 0 0 0 -6,-6 z m 0,2 a 4,4 0 0 1 4,4 4,4 0 0 1 -4,4 4,4 0 0 1 -4,-4 4,4 0 0 1 4,-4 z"
     id="path2905"
     style="opacity:1;fill:#1d2324;fill-opacity:1;stroke:#a3b5d9;stroke-width:0;stroke-dasharray:none;stroke-opacity:1"
     transform="translate(-255,-696.36206)" />
  <circle
     cx="272"
     cy="713.36206"
     r="2"
     id="circle2907"
     style="opacity:1;fill:#1d2324;fill-opacity:1"
     transform="translate(-255,-696.36206)" />
</svg>
