<?xml version="1.0" encoding="UTF-8" standalone="no"?>
<!-- Created with Inkscape (http://www.inkscape.org/) -->

<svg
   width="28"
   height="32"
   viewBox="0 0 28 32"
   id="svg2"
   version="1.1"
   xmlns="http://www.w3.org/2000/svg"
   xmlns:svg="http://www.w3.org/2000/svg">
  <defs
     id="matcha" />
  <metadata
     id="metadata7" />
  <rect
     style="opacity:1;fill:#1b1d24;fill-opacity:1;stroke:none;stroke-width:1;stroke-linecap:butt;stroke-linejoin:round;stroke-miterlimit:4;stroke-dasharray:none;stroke-dashoffset:0;stroke-opacity:1"
     id="rect4138"
     width="28"
     height="31.999998"
     x="5"
     y="557.36218"
     transform="translate(-5,-557.36212)" />
  <rect
     style="opacity:1;fill:#0f56d9;fill-opacity:1;stroke:none;stroke-width:0;stroke-linecap:butt;stroke-linejoin:round;stroke-miterlimit:4;stroke-dasharray:none;stroke-dashoffset:0;stroke-opacity:1"
     id="rect4204-3"
     width="28"
     height="2"
     x="5"
     y="557.36212"
     transform="translate(-5,-557.36212)" />
  <rect
     style="display:inline;fill:#ffffff;fill-opacity:1;fill-rule:evenodd;stroke:none;stroke-width:11.5583;stroke-linecap:square;stroke-miterlimit:2;stroke-opacity:1;paint-order:markers fill stroke"
     id="rect1685-5-3"
     width="8"
     height="8"
     x="15"
     y="570.36212"
     transform="translate(-5,-557.36212)" />
  <path
     id="path4068-7-5-8-6"
     d="m 19,564.36215 c -5.52283,3e-5 -10,4.47716 -10,10 0,5.52284 4.47717,9.99997 10,10 5.52283,-3e-5 10,-4.47716 10,-10 0,-5.52284 -4.47717,-9.99997 -10,-10 z m -3.99609,6 h 1 c 0.0138,-1.2e-4 0.0197,-4.7e-4 0.0293,0 0.25479,0.011 0.50985,0.12844 0.6875,0.3125 l 2.28125,2.28125 2.31055,-2.28125 c 0.26536,-0.23049 0.44659,-0.3055 0.68749,-0.3125 h 1 v 1 c 0,0.28647 -0.0345,0.55067 -0.25,0.75 l -2.2793,2.28125 2.24805,2.25 C 22.90685,576.83156 23,577.09686 23,577.36215 v 1 h -1 c -0.26524,-1e-5 -0.53051,-0.0931 -0.71875,-0.28125 l -2.2793,-2.28125 -2.28125,2.28125 c -0.18796,0.18818 -0.45351,0.28125 -0.71875,0.28125 h -0.99804 v -1 c 0,-0.26528 0.0921,-0.5306 0.28125,-0.71875 l 2.27929,-2.25 -2.27929,-2.28125 c -0.21065,-0.19462 -0.30312,-0.46925 -0.28125,-0.75 z"
     style="fill:#0f56d9;fill-opacity:1;stroke:none;stroke-width:0;stroke-linecap:butt;stroke-linejoin:miter;stroke-miterlimit:4;stroke-dasharray:none;stroke-dashoffset:0;stroke-opacity:1"
     transform="translate(-5,-557.36212)" />
</svg>
