<?xml version="1.0" encoding="UTF-8" standalone="no"?>
<svg
   version="1.1"
   id="svg2"
   viewBox="0 0 34 34"
   height="34"
   width="34"
   xmlns="http://www.w3.org/2000/svg"
   xmlns:svg="http://www.w3.org/2000/svg">
  <defs
     id="defs4" />
  <rect
     style="opacity:1;fill:#1d2324;fill-opacity:1;stroke:none;stroke-width:1.35195;stroke-linecap:butt;stroke-linejoin:round;stroke-miterlimit:4;stroke-dasharray:none;stroke-dashoffset:0;stroke-opacity:1"
     id="rect1617"
     width="34"
     height="34"
     x="255"
     y="696.36206"
     transform="translate(-255,-696.36206)" />
  <path
     id="path3031"
     d="m 272.0001,724.36219 c 6.07503,0 10.9999,-4.92498 10.9999,-11.0001 0,-6.07502 -4.92487,-11 -10.9999,-11 -6.07521,0 -11.0001,4.92498 -11.0001,11 0,6.07512 4.92489,11.0001 11.0001,11.0001"
     style="opacity:1;fill:#0f56d9;fill-opacity:1;fill-rule:evenodd;stroke:#0f56d9;stroke-width:2;stroke-dasharray:none;stroke-opacity:1;enable-background:new"
     transform="translate(-255,-696.36206)" />
  <path
     style="opacity:1;fill:#ffffff"
     id="path3037"
     d="m 272,707.36209 a 6,6 0 0 0 -6,6 6,6 0 0 0 6,6 6,6 0 0 0 6,-6 6,6 0 0 0 -6,-6 z m 0,2 a 4,4 0 0 1 4,4 4,4 0 0 1 -4,4 4,4 0 0 1 -4,-4 4,4 0 0 1 4,-4 z"
     transform="translate(-255,-696.36206)" />
  <circle
     style="opacity:1;fill:#ffffff"
     id="circle3039"
     r="2"
     cy="713.36206"
     cx="272"
     transform="translate(-255,-696.36206)" />
</svg>
