<?xml version="1.0" encoding="UTF-8" standalone="no"?>
<svg
   width="24"
   height="24"
   version="1.1"
   id="svg3608"
   xmlns="http://www.w3.org/2000/svg"
   xmlns:svg="http://www.w3.org/2000/svg">
  <defs
     id="defs3612" />
  <path
     d="M 12,2 C 6.48,2 2,6.48 2,12 2,17.52 6.48,22 12,22 17.52,22 22,17.52 22,12 22,6.48 17.52,2 12,2 Z m 0,1 c 5,0 9,4 9,9 0,5 -4,9 -9,9 C 7,21 3,17 3,12 3,7 7,3 12,3 Z"
     style="fill:#2e63ba;fill-opacity:1;stroke-width:2"
     id="path3606" />
  <path
     d="m 12,5.5 c -3.588,0 -6.5,2.912 -6.5,6.5 0,3.588 2.912,6.5 6.5,6.5 3.588,0 6.5,-2.912 6.5,-6.5 0,-3.588 -2.912,-6.5 -6.5,-6.5 z"
     style="fill:#2e63ba;fill-opacity:1;stroke-width:2"
     id="path4194" />
</svg>
