<?xml version="1.0" encoding="UTF-8" standalone="no"?>
<svg
   width="28"
   height="28"
   version="1.1"
   id="svg1294"
   xmlns="http://www.w3.org/2000/svg"
   xmlns:svg="http://www.w3.org/2000/svg">
  <defs
     id="defs20" />
  <rect
     style="fill:#ffffff;fill-opacity:1;stroke-width:0;stroke-miterlimit:0"
     id="rect1"
     width="10"
     height="9.999999"
     x="9"
     y="9.0000057" />
  <path
     d="m 652.99425,-187.77 c -5.52278,3e-5 -9.99996,4.47718 -9.99996,9.99996 0,5.52278 4.47718,9.99997 9.99996,9.99997 5.52278,-3e-5 9.99996,-4.47719 9.99996,-9.99997 0,-5.52278 -4.47718,-9.99996 -9.99996,-9.99996 z m -3.99608,5.99998 h 0.99999 c 0.0138,-1.2e-4 0.0197,-4.7e-4 0.0293,0 0.25479,0.011 0.50985,0.12844 0.6875,0.3125 l 2.28119,2.28119 2.31059,-2.28119 c 0.26536,-0.23049 0.44659,-0.3055 0.68749,-0.3125 h 1 v 0.99999 c 0,0.28647 -0.0345,0.55067 -0.25,0.75 l -2.27929,2.28119 2.24799,2.24999 c 0.1881,0.18816 0.28125,0.45346 0.28125,0.71875 v 1 h -1 c -0.26524,-10e-6 -0.53051,-0.0931 -0.71875,-0.28125 l -2.27929,-2.28119 -2.28119,2.28119 c -0.18796,0.18818 -0.45351,0.28125 -0.71875,0.28125 h -0.99803 v -1 c 0,-0.26528 0.0921,-0.5306 0.28125,-0.71875 l 2.27929,-2.24999 -2.27929,-2.28119 c -0.21065,-0.19462 -0.30312,-0.46925 -0.28125,-0.75 z"
     fill="#f46067"
     id="path1130-3"
     style="fill:#0f56d9;fill-opacity:1;stroke-width:0.999996"
     transform="translate(-638.99426,191.77001)" />
</svg>
