<?xml version="1.0" encoding="UTF-8" standalone="no"?>
<svg
   width="28"
   height="28"
   version="1.1"
   id="svg1294"
   xmlns="http://www.w3.org/2000/svg"
   xmlns:svg="http://www.w3.org/2000/svg">
  <defs
     id="defs20" />
  <circle
     style="fill:#ffffff;fill-opacity:1;fill-rule:evenodd;stroke:#ffffff;stroke-width:0;stroke-linecap:square;stroke-miterlimit:2;stroke-dasharray:none;paint-order:markers fill stroke"
     id="path5756"
     cx="1376.7273"
     cy="257.18182"
     r="5.0909085"
     transform="matrix(1.375,0,0,1.375,-1879,-339.625)" />
  <path
     d="m 1376.7273,248.45455 c -4.8199,2e-5 -8.7273,3.90738 -8.7273,8.72727 0,4.8199 3.9074,8.72728 8.7273,8.72728 4.8198,-2e-5 8.7273,-3.90738 8.7273,-8.72728 0,-4.81989 -3.9075,-8.72727 -8.7273,-8.72727 z m -3.4875,5.23637 h 0.8727 c 0.012,-1.1e-4 0.017,-4.2e-4 0.026,0 0.2223,0.01 0.4448,0.11209 0.6,0.27272 l 1.9908,1.99087 2.0165,-1.99087 c 0.2316,-0.20115 0.3898,-0.26662 0.6,-0.27272 h 0.8727 v 0.87272 c 0,0.25002 -0.03,0.48059 -0.2181,0.65455 l -1.9892,1.99086 1.9619,1.96364 c 0.1641,0.16421 0.2454,0.39575 0.2454,0.62727 v 0.87273 h -0.8727 c -0.2315,-10e-6 -0.4631,-0.0813 -0.6273,-0.24545 l -1.9892,-1.99087 -1.9908,1.99087 c -0.1641,0.16422 -0.3959,0.24545 -0.6273,0.24545 h -0.8711 v -0.87273 c 0,-0.23151 0.081,-0.46307 0.2455,-0.62727 l 1.9892,-1.96364 -1.9892,-1.99086 c -0.1839,-0.16986 -0.2646,-0.40953 -0.2455,-0.65455 z"
     fill="#f46067"
     id="path1130"
     style="fill:#0f56d9;fill-opacity:1;stroke-width:0.72727"
     transform="matrix(1.375,0,0,1.375,-1879,-339.625)" />
</svg>
