<?xml version="1.0" encoding="UTF-8" standalone="no"?>
<svg
   width="28"
   height="28.000015"
   version="1.1"
   id="svg1294"
   xmlns="http://www.w3.org/2000/svg"
   xmlns:svg="http://www.w3.org/2000/svg">
  <defs
     id="defs20" />
  <rect
     style="opacity:1;fill:#1d2324;fill-opacity:1;stroke:none;stroke-width:0;stroke-miterlimit:0;stroke-dasharray:none;stroke-opacity:1"
     id="rect1"
     width="10"
     height="10"
     x="9"
     y="9" />
  <path
     d="m 1376.7273,247.72727 c -4.8199,3e-5 -8.7273,3.90737 -8.7273,8.72727 0,4.8199 3.9074,8.72728 8.7273,8.72728 4.8199,-3e-5 8.7272,-3.90738 8.7272,-8.72728 0,-4.8199 -3.9073,-8.72727 -8.7272,-8.72727 z m -3.4876,5.23636 h 0.8728 c 0.012,-1e-4 0.017,-4.1e-4 0.026,0 0.2224,0.01 0.445,0.1121 0.6,0.27273 l 1.9909,1.99087 2.0165,-1.99087 c 0.2316,-0.20115 0.3898,-0.26662 0.6,-0.27273 h 0.8728 v 0.87273 c 0,0.25001 -0.03,0.48059 -0.2182,0.65455 l -1.9892,1.99086 1.9619,1.96364 c 0.1641,0.16421 0.2454,0.39574 0.2454,0.62727 v 0.87273 h -0.8727 c -0.2315,-10e-6 -0.463,-0.0813 -0.6273,-0.24546 l -1.9892,-1.99086 -1.9909,1.99086 c -0.164,0.16423 -0.3958,0.24546 -0.6272,0.24546 h -0.8711 v -0.87273 c 0,-0.23152 0.08,-0.46307 0.2455,-0.62727 l 1.9892,-1.96364 -1.9892,-1.99086 c -0.1838,-0.16985 -0.2645,-0.40953 -0.2455,-0.65455 z"
     fill="#da4d54"
     id="path1180"
     style="display:inline;fill:#0f56d9;fill-opacity:1;stroke-width:0.72727"
     transform="matrix(1.375,0,0,1.375,-1878.9999,-338.62498)" />
</svg>
