<?xml version="1.0" encoding="UTF-8" standalone="no"?>
<svg
   width="20"
   height="20"
   version="1.1"
   id="svg3608"
   xmlns="http://www.w3.org/2000/svg"
   xmlns:svg="http://www.w3.org/2000/svg">
  <defs
     id="defs3612" />
  <path
     d="M 10,0 C 4.48,0 0,4.48 0,10 0,15.52 4.48,20 10,20 15.52,20 20,15.52 20,10 20,4.48 15.52,0 10,0 Z m 0,1 c 5,0 9,4 9,9 0,5 -4,9 -9,9 C 5,19 1,15 1,10 1,5 5,1 10,1 Z"
     style="fill:#c3d5f6;fill-opacity:1;stroke-width:2"
     id="path3606" />
  <path
     d="m 10,3.5 c -3.588,0 -6.5,2.912 -6.5,6.5 0,3.588 2.912,6.5 6.5,6.5 3.588,0 6.5,-2.912 6.5,-6.5 0,-3.588 -2.912,-6.5 -6.5,-6.5 z"
     style="fill:#c3d5f6;fill-opacity:1;stroke-width:2"
     id="path4194" />
</svg>
