<?xml version="1.0" encoding="UTF-8" standalone="no"?>
<!-- Created with Inkscape (http://www.inkscape.org/) -->

<svg
   width="28"
   height="32"
   viewBox="0 0 28 32"
   id="svg2"
   version="1.1"
   xmlns:xlink="http://www.w3.org/1999/xlink"
   xmlns="http://www.w3.org/2000/svg"
   xmlns:svg="http://www.w3.org/2000/svg"
   xmlns:rdf="http://www.w3.org/1999/02/22-rdf-syntax-ns#"
   xmlns:cc="http://creativecommons.org/ns#"
   xmlns:dc="http://purl.org/dc/elements/1.1/">
  <defs
     id="matcha">
    <linearGradient
       id="header_bg">
      <stop
         style="stop-color:#1b1d24;stop-opacity:1;"
         offset="0"
         id="stop1167" />
    </linearGradient>
    <linearGradient
       xlink:href="#header_bg"
       id="linearGradient1171"
       x1="19"
       y1="585.36218"
       x2="19"
       y2="557.36218"
       gradientUnits="userSpaceOnUse"
       gradientTransform="translate(10,10.000002)" />
  </defs>
  <metadata
     id="metadata7">
    <rdf:RDF>
      <cc:Work
         rdf:about="">
        <dc:format>image/svg+xml</dc:format>
        <dc:type
           rdf:resource="http://purl.org/dc/dcmitype/StillImage" />
      </cc:Work>
    </rdf:RDF>
  </metadata>
  <g
     id="layer1"
     transform="translate(-5,-557.36212)">
    <g
       id="close-active">
      <g
         style="opacity:1"
         id="g4206">
        <rect
           style="opacity:1;fill:url(#linearGradient1171);fill-opacity:1;stroke:none;stroke-width:1;stroke-linecap:butt;stroke-linejoin:round;stroke-miterlimit:4;stroke-dasharray:none;stroke-dashoffset:0;stroke-opacity:1"
           id="rect4138"
           width="28"
           height="31.999998"
           x="5"
           y="557.36218" />
        <rect
           style="opacity:1;fill:#0f56d9;fill-opacity:1;stroke:none;stroke-width:1;stroke-linecap:butt;stroke-linejoin:round;stroke-miterlimit:4;stroke-dasharray:none;stroke-dashoffset:0;stroke-opacity:1"
           id="rect4204-3"
           width="28"
           height="2"
           x="5"
           y="557.36212" />
      </g>
      <g
         transform="translate(7,559.3622)"
         id="g4663"
         style="enable-background:new">
        <g
           id="layer1-7"
           transform="translate(0,-1028.3622)">
          <g
             style="display:inline"
             id="titlebutton-close-dark-8"
             transform="translate(-641,1218)">
            <g
               id="g4927-9-2-8-4"
               style="display:inline;opacity:1"
               transform="translate(-678,-432.63782)">
              <g
                 transform="translate(-103)"
                 style="display:inline;opacity:1"
                 id="g4490-6-5-2-5-3-6">
                <g
                   id="g4092-0-2-21-0-9-7-0"
                   style="display:inline"
                   transform="translate(58)">
                  <circle
                     style="fill:#ffffff;fill-opacity:1;fill-rule:evenodd;stroke-width:8.05598;stroke-linecap:square;stroke-miterlimit:2;paint-order:markers fill stroke"
                     id="path1549"
                     cx="1376"
                     cy="254.99997"
                     r="5" />
                  <path
                     style="fill:#0f56d9;fill-opacity:1;stroke:none;stroke-width:0;stroke-linecap:butt;stroke-linejoin:miter;stroke-miterlimit:4;stroke-dasharray:none;stroke-dashoffset:0;stroke-opacity:1"
                     d="m 414,58 a 7,7 0 0 0 -7,7 7,7 0 0 0 7,7 7,7 0 0 0 7,-7 7,7 0 0 0 -7,-7 z m -3,3.921875 h 0.75 c 0.008,-9e-5 0.0156,-3.45e-4 0.0234,0 0.19121,0.0084 0.3824,0.09643 0.51562,0.234375 L 414,63.867188 415.73438,62.15625 c 0.19921,-0.172875 0.335,-0.229125 0.51562,-0.234375 H 417 v 0.75 c 0,0.214853 -0.0258,0.412987 -0.1875,0.5625 l -1.71094,1.710937 1.6875,1.6875 C 416.9302,66.77394 416.99999,66.9729 417,67.171875 v 0.75 h -0.75 c -0.19898,-8e-6 -0.39794,-0.06982 -0.53906,-0.210937 L 414,66 l -1.71094,1.710938 c -0.14112,0.141142 -0.34009,0.210937 -0.53906,0.210937 H 411 v -0.75 c 0,-0.198967 0.0698,-0.397935 0.21094,-0.539063 l 1.71094,-1.6875 -1.71094,-1.710937 C 411.05288,63.088403 410.98357,62.882438 411,62.671875 Z"
                     transform="translate(962.00001,190.00002)"
                     id="path4068-7-5-9-6-5-8-5" />
                </g>
              </g>
              <g
                 id="g4778-2-68-8-7-9"
                 transform="translate(1323,246.86719)"
                 style="fill:#ffffff;fill-opacity:1">
                <g
                   style="display:inline;fill:#ffffff;fill-opacity:1"
                   id="layer9-9-4-4-1-1-7"
                   transform="translate(-60,-518)" />
                <g
                   id="layer10-2-1-8-0-4-4"
                   transform="translate(-60,-518)"
                   style="fill:#ffffff;fill-opacity:1" />
                <g
                   id="layer11-16-4-9-6-9-0"
                   transform="translate(-60,-518)"
                   style="fill:#ffffff;fill-opacity:1" />
                <g
                   transform="matrix(0.75,0,0,0.75,2,2.0546875)"
                   id="g2996-76-5-96-3-7"
                   style="fill:#ffffff;fill-opacity:1">
                  <g
                     transform="translate(-60,-518)"
                     id="layer12-4-5-7-9-4-5"
                     style="fill:#ffffff;fill-opacity:1">
                    <g
                       transform="translate(19,-242)"
                       id="layer4-4-1-9-5-6-3-8"
                       style="display:inline;fill:#ffffff;fill-opacity:1" />
                  </g>
                </g>
                <g
                   id="layer13-2-6-11-3-1-6"
                   transform="translate(-60,-518)"
                   style="fill:#ffffff;fill-opacity:1" />
                <g
                   id="layer14-4-0-33-2-4-8"
                   transform="translate(-60,-518)"
                   style="fill:#ffffff;fill-opacity:1" />
                <g
                   id="layer15-7-3-0-6-6-3"
                   transform="translate(-60,-518)"
                   style="fill:#ffffff;fill-opacity:1" />
              </g>
            </g>
            <rect
               y="-185.63782"
               x="645"
               height="16"
               width="16"
               id="rect17883-39-99-8-8"
               style="display:inline;opacity:1;fill:none;fill-opacity:1;stroke:none;stroke-width:1;stroke-linecap:butt;stroke-linejoin:miter;stroke-miterlimit:4;stroke-dasharray:none;stroke-dashoffset:0;stroke-opacity:0" />
          </g>
        </g>
      </g>
      <rect
         style="display:inline;fill:#ffffff;fill-opacity:1;fill-rule:evenodd;stroke:none;stroke-width:11.5583;stroke-linecap:square;stroke-miterlimit:2;stroke-opacity:1;paint-order:markers fill stroke"
         id="rect1685-5-3"
         width="8"
         height="8"
         x="15"
         y="570.36212" />
      <path
         id="path4068-7-5-8-6"
         d="m 19,564.36215 c -5.52283,3e-5 -10,4.47716 -10,10 0,5.52284 4.47717,9.99997 10,10 5.52283,-3e-5 10,-4.47716 10,-10 0,-5.52284 -4.47717,-9.99997 -10,-10 z m -3.99609,6 h 1 c 0.0138,-1.2e-4 0.0197,-4.7e-4 0.0293,0 0.25479,0.011 0.50985,0.12844 0.6875,0.3125 l 2.28125,2.28125 2.31055,-2.28125 c 0.26536,-0.23049 0.44659,-0.3055 0.68749,-0.3125 h 1 v 1 c 0,0.28647 -0.0345,0.55067 -0.25,0.75 l -2.2793,2.28125 2.24805,2.25 C 22.90685,576.83156 23,577.09686 23,577.36215 v 1 h -1 c -0.26524,-1e-5 -0.53051,-0.0931 -0.71875,-0.28125 l -2.2793,-2.28125 -2.28125,2.28125 c -0.18796,0.18818 -0.45351,0.28125 -0.71875,0.28125 h -0.99804 v -1 c 0,-0.26528 0.0921,-0.5306 0.28125,-0.71875 l 2.27929,-2.25 -2.27929,-2.28125 c -0.21065,-0.19462 -0.30312,-0.46925 -0.28125,-0.75 z"
         style="fill:#0f56d9;fill-opacity:1;stroke:none;stroke-width:0;stroke-linecap:butt;stroke-linejoin:miter;stroke-miterlimit:4;stroke-dasharray:none;stroke-dashoffset:0;stroke-opacity:1" />
    </g>
  </g>
</svg>
