<?xml version="1.0" encoding="UTF-8" standalone="no"?>
<!-- Created with Inkscape (http://www.inkscape.org/) -->

<svg
   width="28"
   height="32"
   viewBox="0 0 28 32"
   id="svg2"
   version="1.1"
   xmlns:xlink="http://www.w3.org/1999/xlink"
   xmlns="http://www.w3.org/2000/svg"
   xmlns:svg="http://www.w3.org/2000/svg"
   xmlns:rdf="http://www.w3.org/1999/02/22-rdf-syntax-ns#"
   xmlns:cc="http://creativecommons.org/ns#"
   xmlns:dc="http://purl.org/dc/elements/1.1/">
  <defs
     id="matcha">
    <linearGradient
       id="header_bg">
      <stop
         style="stop-color:#1b1d24;stop-opacity:1;"
         offset="0"
         id="stop1167" />
    </linearGradient>
    <linearGradient
       xlink:href="#header_bg"
       id="linearGradient3553"
       gradientUnits="userSpaceOnUse"
       x1="19"
       y1="585.36218"
       x2="19"
       y2="557.36218"
       gradientTransform="translate(10,9.999999)" />
  </defs>
  <metadata
     id="metadata7">
    <rdf:RDF>
      <cc:Work
         rdf:about="">
        <dc:format>image/svg+xml</dc:format>
        <dc:type
           rdf:resource="http://purl.org/dc/dcmitype/StillImage" />
      </cc:Work>
    </rdf:RDF>
  </metadata>
  <g
     id="layer1"
     transform="translate(-71,-557.3621)">
    <g
       id="close-pressed"
       transform="translate(33)">
      <g
         id="use1315"
         transform="translate(33,-2.2617187e-5)">
        <rect
           style="opacity:1;fill:url(#linearGradient3553);fill-opacity:1;stroke:none;stroke-width:1;stroke-linecap:butt;stroke-linejoin:round;stroke-miterlimit:4;stroke-dasharray:none;stroke-dashoffset:0;stroke-opacity:1"
           id="rect3547"
           width="28"
           height="31.999998"
           x="5"
           y="557.36218" />
        <rect
           style="opacity:1;fill:#0f56d9;fill-opacity:1;stroke:none;stroke-width:1;stroke-linecap:butt;stroke-linejoin:round;stroke-miterlimit:4;stroke-dasharray:none;stroke-dashoffset:0;stroke-opacity:1"
           id="rect3549"
           width="28"
           height="2"
           x="5"
           y="557.36212" />
      </g>
      <rect
         style="fill:#1b1d24;fill-opacity:1;fill-rule:evenodd;stroke:none;stroke-width:11.5583;stroke-linecap:square;stroke-miterlimit:2;stroke-opacity:1;paint-order:markers fill stroke"
         id="rect1685"
         width="8"
         height="8"
         x="48"
         y="567.36212" />
      <path
         style="display:inline;fill:#0f56d9;fill-opacity:1;stroke:none;stroke-width:0;stroke-linecap:butt;stroke-linejoin:miter;stroke-miterlimit:4;stroke-dasharray:none;stroke-dashoffset:0;stroke-opacity:1"
         d="m 52,562.36215 c -6.627396,3e-5 -12,5.37259 -12,12 0,6.6274 5.372604,11.99996 12,12 6.627397,-4e-5 12.000001,-5.3726 12.000001,-12 0,-6.62741 -5.372604,-11.99997 -12.000001,-12 z m -4.795308,7.2 h 1.2 c 0.01656,-1.5e-4 0.02364,-5.7e-4 0.03516,0 0.305748,0.0132 0.61182,0.15412 0.825,0.375 l 2.737501,2.7375 2.77266,-2.7375 c 0.318432,-0.27659 0.535908,-0.3666 0.824988,-0.375 h 1.2 v 1.2 c 0,0.34376 -0.0414,0.6608 -0.3,0.9 l -2.73516,2.7375 2.69766,2.7 c 0.22572,0.22579 0.3375,0.54415 0.3375,0.8625 v 1.2 h -1.2 c -0.318288,-2e-5 -0.636612,-0.11172 -0.8625,-0.3375 l -2.73516,-2.7375 -2.737501,2.7375 c -0.225552,0.22581 -0.544212,0.3375 -0.8625,0.3375 h -1.197648 v -1.2 c 0,-0.31834 0.11052,-0.63672 0.3375,-0.8625 l 2.735148,-2.7 -2.735148,-2.7375 c -0.25278,-0.23355 -0.363744,-0.5631 -0.3375,-0.9 z"
         id="path1317" />
    </g>
  </g>
</svg>
